<svg width="130" height="80" viewBox="0 0 130 80" fill="none" xmlns="http://www.w3.org/2000/svg">
<path fill-rule="evenodd" clip-rule="evenodd" d="M76.7429 0.163486C76.3647 -0.110278 75.9178 -0.00761698 76.1585 0.231927C78.2211 2.49048 81.7274 8.20532 79.493 12.0038C79.5617 12.3802 79.596 12.7566 79.6649 13.1331C79.1492 12.1065 78.771 11.0798 78.3241 10.019C77.9116 7.38403 77.671 5.46767 75.8147 3.24333C75.0584 2.3536 74.1302 1.53231 72.9614 0.437251C72.824 0.300368 72.6521 0.40303 72.6864 0.539912C73.924 2.66159 75.9178 5.02281 76.0209 7.45246C76.0553 8.37642 75.849 8.85548 74.4052 8.51331C73.3396 8.23954 72.3426 7.69201 71.5864 6.97338C70.7614 6.18631 70.2113 5.19391 69.4894 3.99619C69.4207 3.89353 69.2831 3.92775 69.2831 4.09885C69.3863 4.71482 69.8676 5.91254 70.1082 6.39162C70.3832 6.90494 70.177 7.1787 69.8675 7.21292C69.6613 7.24714 69.455 7.21292 69.1801 7.14448C66.8769 6.42584 64.9862 5.63877 63.1986 4.50949C62.9923 4.44105 62.8548 4.6806 62.9923 4.8517C65.3987 6.83649 67.3581 8.20532 70.3832 9.23194C71.8614 9.74526 73.6146 10.3954 75.1615 11.1483C76.7772 11.9354 78.1179 13.2699 77.0866 15.2548C77.1898 14.9468 77.2241 14.6046 77.2241 14.2624C76.3303 15.3574 73.9584 16.692 71.6208 17.3422C70.7958 17.5475 70.5551 17.3422 70.4176 16.8631C70.3144 15.7681 70.5895 14.4677 70.9332 13.2358C71.002 12.962 70.7614 12.7909 70.5551 13.0647C69.9707 13.8859 69.4894 15.7681 68.6644 17.2053C68.1488 18.095 67.3925 18.8479 66.7737 19.0532C66.6706 19.0875 64.5737 19.5665 64.5737 19.5665C64.058 19.019 62.0297 19.327 61.3766 19.3954C61.411 17.5818 62.8548 15.0837 63.9205 13.6121C64.0923 13.3726 63.8173 13.2358 63.6454 13.3726C62.0297 14.365 61.1703 15.6312 60.0703 17.1711C58.6953 16.3498 57.3546 15.5285 55.9795 14.7072C55.3951 14.2624 55.292 13.8859 55.3951 13.0304C55.8765 9.33462 56.3233 4.1673 58.2827 1.08744C58.3859 0.745235 58.214 0.711015 58.0078 0.847897C54.2951 4.23573 54.3295 9.77942 53.2638 12.8251C53.0919 13.0647 52.8857 13.1331 52.645 13.0647C52.1981 12.7909 49.8606 11.422 49.0012 10.4981C48.8636 10.3612 48.8293 10.943 49.3105 11.9354C48.2793 10.7035 48.7605 9.8821 48.7949 9.81368C49.8262 7.89733 51.1325 6.15209 52.4044 4.30417C52.5763 4.03041 52.3013 3.99619 52.2325 4.06463C50.72 5.29657 49.5168 6.83649 48.1761 7.79467C47.9355 7.93155 47.7636 7.76045 47.7636 7.41825C47.7636 6.59695 47.8324 5.74144 48.0386 4.88592C48.0386 4.81748 48.0386 4.74904 48.0042 4.71482C47.9699 4.71482 47.9011 4.71482 47.8324 4.78326C47.0073 5.98098 46.9042 7.5209 47.1792 8.65018C46.5948 10.806 47.523 12.7566 48.7605 13.8517C49.6543 14.6388 50.7543 15.4601 51.8544 15.9733C54.192 17.0685 56.4264 18.3346 58.2484 19.635C58.5922 19.943 58.5922 20.4905 58.3171 20.73C58.1453 20.8327 57.939 20.9696 57.7328 21.0722C56.0139 21.7566 56.1858 21.8251 55.8765 23.673C55.3264 24.0837 54.1232 24.8365 53.5388 25.1103C53.0232 25.3498 53.0576 25.2471 52.8169 25.7604C52.2669 25.8974 51.8544 25.9658 51.6137 26.1369C51.4762 26.2396 51.4419 26.3422 51.2356 26.6844C50.5825 27.0609 50.4793 27.2661 50.4106 27.5399C50.3762 27.7794 50.4793 28.0532 50.7887 28.4981C50.7887 28.6008 50.7543 28.7035 50.7887 28.8061C50.8231 28.943 50.9262 29.0798 51.0294 29.1825C51.2012 29.3536 51.4419 29.5247 51.6481 29.6958C51.545 29.9011 51.545 29.9354 51.545 30.1065C51.4762 31.4411 52.6794 31.9886 54.8107 32.2966C56.9765 34.0076 62.5111 34.5894 63.9892 36.5399C63.061 34.7263 59.6578 34.1103 57.1484 32.9468C61.136 34.1787 62.958 34.7605 65.2268 34.1787C63.8173 34.3156 61.6516 34.0419 59.7265 33.1863C61.8235 33.8023 64.5392 33.9392 66.1549 33.4601C68.3894 32.8099 67.6675 30.1407 67.255 28.5665C68.5613 31.0304 68.2863 32.1597 67.6675 33.5286C68.4237 36.0609 68.9051 37.2586 69.0769 39.8936C68.6644 37.8061 68.2175 36.6083 67.4956 34.6236C68.2863 39.0381 68.4926 40.6806 68.355 44.9582C66.1549 42.1178 65.5361 40.9202 65.2612 37.1217C65.8112 38.251 66.2581 39.4487 66.5674 40.578C66.2237 38.0456 65.7424 36.1977 64.883 34.8974C64.4018 39.6882 64.9862 42.1178 66.8425 46.2586C65.2955 44.2738 64.4018 42.4259 64.0236 39.7566C64.2642 42.2548 64.2299 43.076 65.1924 44.7871C62.4423 42.597 60.3797 40.7148 60.4829 37.4639C60.2078 38.6959 60.311 40.27 60.4829 41.365C60.2766 40.8517 59.1078 36.848 58.6953 35.6502C58.9359 36.9506 58.9703 38.1825 59.2453 39.4829C59.6922 41.5361 60.6204 43.1445 63.1642 45.232C62.2704 44.2738 61.3422 42.7681 60.861 41.4335C63.0954 45.1636 66.8425 46.0875 68.5956 49.7149C68.0112 47.3537 67.1862 45.5742 66.2581 43.3498C69.2144 47.6616 68.9394 47.9011 69.9707 53C70.3832 47.6616 74.9209 41.2966 74.6803 37.2928C74.474 38.3536 73.8208 40.5437 72.6521 42.3575C73.7521 39.5855 74.0271 36.6426 74.1303 33.6997C72.9614 31.2015 70.6582 28.6692 70.4863 26.1369C69.4207 26.5133 68.3894 26.8213 67.3237 27.1293C72.9614 24.5627 71.5864 24.7681 73.8208 20.0457C73.8553 19.9772 69.455 21.5514 69.4894 21.4487C69.6613 21.3802 74.5428 19.0532 74.7147 18.9505C77.5679 17.4791 80.6273 15.0494 81.5899 12.038C82.965 7.58934 80.7649 3.31177 76.7429 0.163486ZM69.8675 5.33079C69.8675 5.29657 70.7614 6.90494 71.6552 8.03421C70.5895 7.04182 70.177 6.04942 69.8675 5.33079ZM64.9862 6.08364C68.1488 8.10266 72.7552 9.36879 75.7803 10.9772C72.0677 9.26611 68.3207 8.65018 64.9862 6.08364ZM74.0959 2.28516C75.9178 4.26995 76.1241 6.22053 76.2272 7.1787C75.9522 5.19391 75.1959 3.96197 74.0959 2.28516ZM48.1761 8.47909C47.3855 9.30037 47.248 9.81368 47.248 10.6349C47.1105 9.77942 47.2136 8.95816 47.8667 8.41064C48.6918 7.65779 50.5825 5.98098 51.4762 5.12547C50.3075 6.42584 49.0699 7.55512 48.1761 8.47909ZM53.5388 12.8251C53.917 11.5931 54.1576 10.2927 54.4326 9.02658C54.9139 6.76805 55.3951 4.92015 56.667 2.86691C55.4639 5.39923 55.2233 6.49429 54.7076 8.78706C54.5701 9.43722 53.8826 12.1407 53.5388 12.8251ZM56.5296 22.0304C56.7015 21.7566 56.9765 21.6198 57.389 21.4487C57.9734 21.2091 58.7296 21.1065 59.6235 20.8669C58.4203 21.3803 58.0421 21.6198 57.7328 21.8593C58.1797 21.7566 58.6265 21.654 59.039 21.5855C57.664 22.1331 57.1484 22.4069 56.1171 23.4677C56.2545 23.057 56.2545 22.4753 56.5296 22.0304ZM55.1889 30.5171C55.8765 30.5855 56.2202 30.6882 56.5639 30.9963C55.9108 30.7566 55.9795 30.8251 55.4295 31.0988C55.017 31.3042 54.7764 31.578 54.2607 31.6464C53.6763 31.7148 53.0919 31.5095 52.4732 31.0988C52.645 31.2699 52.7482 31.4069 52.9888 31.578C52.1294 31.0304 51.7856 30.7909 51.82 29.7643C52.1981 30.2433 53.1951 30.1065 53.8482 29.9696C53.9513 29.9696 54.5701 29.9011 55.1545 30.1407C55.8765 30.4487 57.1484 30.5171 58.3171 30.4487C56.1171 30.7225 55.8765 30.5171 55.1889 30.5171ZM64.8143 26.6502C64.6767 26.308 64.608 25.8631 64.5048 25.4867C64.5048 25.4867 64.4018 26.2053 64.333 26.308C64.4018 25.5893 64.2642 25.1787 64.2642 25.1787C64.058 26.9239 64.1611 28.0532 61.6516 27.6426C62.3392 27.6083 62.958 27.4372 62.958 27.4372C61.8235 27.3688 61.6516 27.4031 60.5859 27.0266C61.3766 27.0609 61.6172 27.1293 62.3735 26.9239C61.3422 26.7529 60.2766 26.5818 59.314 26.2396C59.314 26.2396 56.4952 27.3004 56.5296 27.232C56.5639 27.1635 57.939 26.4791 57.939 26.4791C56.9421 26.924 55.9795 27.3004 54.9482 27.711C55.4639 27.9505 55.4639 27.9505 55.8765 28.3954C55.6702 28.327 55.4295 28.2243 55.2233 28.1559C55.7045 28.6008 55.567 29.1483 56.3233 29.4221C55.9108 29.3878 55.4639 29.1483 55.0858 29.0114C55.7733 29.7985 56.3233 29.9011 57.4921 30.1407C55.4983 30.0722 55.2233 29.73 54.1232 29.0114C54.2263 29.1825 54.3639 29.3536 54.5014 29.5247C54.0201 28.9772 53.5388 29.0799 52.9544 28.5665C53.0232 28.7376 53.2638 28.943 53.4357 29.1141C52.7482 28.6692 52.37 28.5665 52.1981 27.7453C52.1981 27.4715 52.8169 27.1977 52.9544 27.3346C53.2638 27.6426 53.3669 27.7453 53.642 28.0875C53.8826 27.8821 53.8138 27.711 53.8482 27.4031C53.2982 27.095 53.4357 27.0609 53.7107 26.7871C53.7451 26.7529 53.6076 26.5818 53.6076 26.5818C53.1263 26.616 52.645 26.5818 52.1638 26.5475C52.7825 26.4449 53.4357 26.4449 53.9857 26.1369C55.4295 25.3841 56.7702 24.6997 58.2827 24.0152C57.664 24.1521 56.8389 24.3916 56.2202 24.5286C58.0765 23.7415 60.2078 22.7148 62.0986 22.0647C61.8235 22.2699 61.5485 22.441 61.2391 22.6464C62.4423 22.1673 63.8517 22.4753 64.6424 23.4677C64.4018 23.3308 64.1611 23.1939 63.8861 23.1939C64.1611 23.5019 64.5737 23.8783 64.6424 24.289C64.0236 23.8099 63.2329 23.5703 62.3735 23.6388C62.4423 23.5703 62.7173 23.4677 62.9923 23.3992C60.9297 23.5703 61.0329 24.1863 59.5546 25.213C59.5203 25.213 60.4829 24.9049 60.4829 24.9049C61.136 25.8974 62.958 25.2814 63.5424 25.1787C63.7142 25.1445 63.0954 25.5893 63.2673 25.4867C63.6454 25.3156 64.5392 24.7681 64.883 24.7338C64.5737 24.9049 64.8143 26.6502 64.8143 26.6502ZM62.6485 24.0837C62.6142 24.0837 62.3048 24.0152 62.0986 24.1521C61.7204 24.4259 61.686 24.3916 61.2735 24.289C61.7891 23.8099 62.0986 23.673 62.6485 24.0837ZM73.0302 20.7985C71.1739 24.597 71.9301 24.2548 68.2863 26.1369C69.4894 25.213 70.6926 24.3916 70.9677 23.8441C71.002 23.7757 70.5207 24.2205 69.5926 24.6654C70.4863 24.1521 71.4833 23.1255 71.7582 22.1673C71.7582 22.1673 71.4145 22.2015 71.002 21.962C70.5207 22.2015 70.0394 22.441 69.5926 22.6807C69.8332 22.441 70.1082 22.2699 70.3832 22.0647C69.0425 22.6464 68.1488 22.9886 66.9799 23.8783C69.352 21.5855 71.6208 21.3803 73.0302 20.7985ZM64.4361 20.4563C67.53 19.7719 68.4237 18.9505 69.7301 15.9392C68.5269 19.5665 67.1862 20.1483 64.4361 20.4563Z" fill="#9F974F"/>
<path d="M15.2722 75.2099L15.5642 79.5124H10.7752L11.0672 75.2099V70.4485H4.49697V75.2386L4.78898 79.5411H0L0.292011 75.2386V62.1877L0 58.0287H4.78898L4.49697 62.1877V66.4902H11.0672V62.1591L10.7752 58H15.5642L15.2722 62.1591V75.2099ZM38.8468 58.0287L38.5548 62.1877V71.5671C38.5548 74.4737 37.9319 76.6058 36.6859 77.9635C35.4595 79.3212 33.542 80 30.9333 80C28.3247 80 26.3975 79.3212 25.1515 77.9635C23.925 76.6058 23.3118 74.4737 23.3118 71.5671V62.1877L23.0198 58.0287H27.8088L27.5168 62.1877V71.5671C27.5168 73.1543 27.7699 74.2824 28.276 74.9518C28.8016 75.6211 29.6874 75.9557 30.9333 75.9557C32.1793 75.9557 33.0553 75.6211 33.5614 74.9518C34.087 74.2824 34.3498 73.1543 34.3498 71.5671V62.1877L34.0578 58.0287H38.8468ZM62.1154 75.2386L62.4074 79.5411H55.7787L50.2013 62.5606V75.2386L50.4933 79.5411H46.2884L46.5804 75.2386V62.1877L46.2884 58.0287H52.9462L58.4944 74.9231V62.1877L58.2024 58.0287H62.4074L62.1154 62.1877V75.2386ZM84.3045 62.1017L83.9833 62.1877L81.3552 61.8435H78.6687V75.2386L78.9607 79.5411H74.1717L74.4637 75.2386V61.8435H71.7772L69.1491 62.1877L68.8279 62.1017L69.4703 58.0287H83.6621L84.3045 62.1017ZM106.918 79.5411H101.808L101.136 75.2386V75.1812L93.661 75.2386L92.9894 79.5411H88.4632L89.8941 75.2386L93.4858 62.3312L94.3618 58.0287H100.815L101.691 62.3312L105.487 75.2386L106.918 79.5411ZM99.9685 71.2516L97.3111 62.073L94.7706 71.2803L99.9685 71.2516ZM130 79.5411H123.955L121.999 75.2386L120.743 73.2308H117.794V75.2386L118.086 79.5411H113.297L113.589 75.2386V62.1877L113.297 58.0287H120.918C123.507 58.0287 125.426 58.6597 126.671 59.9218C127.937 61.1647 128.569 63.0578 128.569 65.601C128.569 67.1499 128.238 68.498 127.576 69.6454C126.934 70.7927 126.039 71.6723 124.89 72.2842L126.759 75.2386L130 79.5411ZM117.794 69.2725H119.692C121.346 69.2725 122.505 69.0047 123.167 68.4694C123.849 67.9339 124.189 66.9778 124.189 65.601C124.189 64.6449 124.053 63.9087 123.78 63.3924C123.507 62.8761 123.05 62.5128 122.408 62.3025C121.784 62.0921 120.899 61.987 119.75 61.987H117.794V69.2725Z" fill="#686242"/>
</svg>
