<svg width="189" height="60" viewBox="0 0 189 60" fill="none" xmlns="http://www.w3.org/2000/svg">
<path fill-rule="evenodd" clip-rule="evenodd" d="M33.5186 0.185078C33.0924 -0.124843 32.5888 -0.00862315 32.86 0.262559C35.1844 2.81942 39.1359 9.28904 36.6178 13.5892C36.6953 14.0154 36.734 14.4415 36.8115 14.8676C36.2304 13.7054 35.8042 12.5432 35.3006 11.3423C34.8357 8.35928 34.5646 6.18981 32.4726 3.6717C31.6203 2.66445 30.5743 1.73469 29.2571 0.495001C29.1022 0.340039 28.9085 0.45626 28.9472 0.611221C30.3419 3.01312 32.5888 5.6862 32.705 8.43675C32.7438 9.48274 32.5113 10.0251 30.8842 9.6377C29.6833 9.32778 28.5598 8.70793 27.7075 7.89439C26.7778 7.00337 26.1579 5.8799 25.3444 4.52399C25.2669 4.40777 25.1119 4.44651 25.1119 4.64021C25.2281 5.33753 25.7706 6.69344 26.0417 7.2358C26.3516 7.81691 26.1192 8.12683 25.7705 8.16557C25.5381 8.20431 25.3056 8.16557 24.9958 8.08809C22.4002 7.27454 20.2694 6.38352 18.2549 5.10509C18.0225 5.02761 17.8675 5.29879 18.0225 5.49249C20.7343 7.73943 22.9425 9.28904 26.3516 10.4513C28.0174 11.0324 29.9932 11.7684 31.7365 12.6207C33.5573 13.5117 35.0682 15.0226 33.906 17.2695C34.0222 16.9209 34.0609 16.5335 34.0609 16.1461C33.0537 17.3858 30.3807 18.8966 27.7463 19.6327C26.8165 19.8651 26.5453 19.6326 26.3904 19.0903C26.2741 17.8506 26.5841 16.3785 26.9715 14.9839C27.0489 14.6739 26.7778 14.4802 26.5453 14.7902C25.8867 15.7199 25.3444 17.8506 24.4147 19.4777C23.8335 20.4849 22.9813 21.3373 22.2839 21.5697C22.1677 21.6085 19.8046 22.1508 19.8046 22.1508C19.2235 21.531 16.9377 21.8796 16.2017 21.9571C16.2405 19.9039 17.8675 17.0758 19.0684 15.41C19.2621 15.1388 18.9522 14.9839 18.7585 15.1388C16.9377 16.2622 15.9692 17.6957 14.7295 19.4389C13.18 18.5092 11.669 17.5795 10.1194 16.6496C9.46087 16.1461 9.34465 15.7199 9.46087 14.7514C10.0033 10.5675 10.5068 4.71769 12.715 1.23106C12.8313 0.843663 12.6376 0.804922 12.4052 0.959883C8.22118 4.79516 8.25993 11.071 7.05898 14.519C6.86528 14.7902 6.63283 14.8676 6.36165 14.7902C5.85803 14.4802 3.22369 12.9306 2.25519 11.8846C2.10023 11.7297 2.06149 12.3883 2.60385 13.5117C1.44165 12.1171 1.984 11.1873 2.02275 11.1098C3.18495 8.94037 4.65708 6.96463 6.09047 4.87265C6.28418 4.56273 5.97425 4.52399 5.89677 4.60147C4.1922 5.99611 2.83629 7.73943 1.32542 8.82415C1.05424 8.97912 0.860538 8.78541 0.860538 8.39802C0.860538 7.46824 0.938018 6.49974 1.17046 5.53123C1.17046 5.45375 1.17046 5.37627 1.13172 5.33753C1.09298 5.33753 1.0155 5.33753 0.938018 5.41501C0.00825238 6.77092 -0.107969 8.51423 0.201954 9.79266C-0.456631 12.2333 0.589356 14.4415 1.984 15.6811C2.99125 16.5722 4.23094 17.502 5.47063 18.083C8.10496 19.3228 10.6231 20.7562 12.6763 22.2282C13.0637 22.577 13.0637 23.1968 12.7538 23.4679C12.5601 23.5842 12.3276 23.7392 12.0952 23.8553C10.1582 24.6301 10.3519 24.7077 10.0033 26.7997C9.38339 27.2645 8.02748 28.1168 7.3689 28.4267C6.78779 28.6979 6.82653 28.5817 6.55535 29.1628C5.93551 29.3178 5.47063 29.3953 5.19944 29.589C5.04449 29.7052 5.00575 29.8213 4.77331 30.2087C4.03723 30.6349 3.92101 30.8673 3.84354 31.1773C3.8048 31.4484 3.92102 31.7584 4.26968 32.262C4.26968 32.3783 4.23094 32.4945 4.26968 32.6106C4.30842 32.7657 4.42464 32.9206 4.54086 33.0368C4.73456 33.2305 5.00575 33.4242 5.23818 33.6179C5.12197 33.8503 5.12197 33.8891 5.12197 34.0828C5.04449 35.5936 6.40039 36.2135 8.80228 36.5622C11.243 38.4992 17.4801 39.1578 19.1459 41.3659C18.0999 39.3128 14.2646 38.6154 11.4367 37.2983C15.9305 38.6929 17.9838 39.3515 20.5406 38.6929C18.9522 38.8478 16.5116 38.538 14.3421 37.5694C16.7053 38.2667 19.7658 38.4217 21.5866 37.8794C24.1047 37.1433 23.2911 34.1216 22.8262 32.3395C24.2984 35.1288 23.9885 36.4072 23.2911 37.9569C24.1434 40.8236 24.6858 42.1795 24.8795 45.1625C24.4146 42.7993 23.911 41.4434 23.0974 39.1965C23.9885 44.194 24.2209 46.0535 24.0659 50.8961C21.5866 47.6806 20.8892 46.3248 20.5794 42.0245C21.1992 43.303 21.7028 44.6589 22.0514 45.9374C21.664 43.0705 21.1217 40.9785 20.1532 39.5065C19.6109 44.9301 20.2694 47.6806 22.3614 52.3682C20.6181 50.1213 19.6109 48.0293 19.1847 45.0075C19.4558 47.8356 19.4172 48.7653 20.5018 50.7024C17.4027 48.223 15.0782 46.0923 15.1945 42.4119C14.8845 43.8066 15.0008 45.5886 15.1945 46.8283C14.962 46.2472 13.6449 41.7147 13.18 40.3588C13.4512 41.8308 13.4898 43.2255 13.7998 44.6977C14.3034 47.022 15.3494 48.8428 18.2162 51.206C17.209 50.1213 16.1629 48.4167 15.6206 46.9059C18.1387 51.1286 22.3614 52.1745 24.3371 56.281C23.6785 53.6079 22.7488 51.5934 21.7028 49.0753C25.0344 53.9565 24.7245 54.2277 25.8867 60C26.3516 53.9565 31.4653 46.7508 31.1941 42.2182C30.9617 43.4192 30.2256 45.8986 28.9085 47.9518C30.1482 44.8138 30.4581 41.4822 30.5744 38.1506C29.2571 35.3225 26.6615 32.4557 26.4678 29.589C25.2669 30.015 24.1047 30.3638 22.9037 30.7124C29.2571 27.8068 27.7075 28.0393 30.2256 22.6932C30.2644 22.6157 25.3056 24.3978 25.3444 24.2815C25.5381 24.2041 31.0392 21.5697 31.2329 21.4534C34.4483 19.7877 37.8962 17.0371 38.9809 13.628C40.5306 8.59171 38.0512 3.74918 33.5186 0.185078ZM25.7705 6.03485C25.7705 5.99612 26.7778 7.81691 27.7851 9.09534C26.5841 7.97187 26.1192 6.8484 25.7705 6.03485ZM20.2694 6.88714C23.8335 9.17282 29.0247 10.6062 32.4338 12.427C28.2499 10.4899 24.0272 9.79266 20.2694 6.88714ZM30.5356 2.58697C32.5888 4.8339 32.8212 7.04211 32.9375 8.12683C32.6275 5.8799 31.7753 4.48525 30.5356 2.58697ZM1.32542 9.59896C0.434395 10.5287 0.279434 11.1098 0.279434 12.0396C0.124474 11.071 0.240694 10.1413 0.976759 9.52148C1.90652 8.66919 4.03723 6.77092 5.04449 5.80242C3.72732 7.27454 2.33267 8.55297 1.32542 9.59896ZM7.3689 14.519C7.79504 13.1243 8.06622 11.6522 8.37615 10.2188C8.91851 7.66195 9.46087 5.56998 10.8942 3.24556C9.53835 6.11233 9.26717 7.35202 8.68607 9.94762C8.53111 10.6836 7.7563 13.7442 7.3689 14.519ZM10.7393 24.9401C10.933 24.6301 11.243 24.4752 11.7078 24.2815C12.3664 24.0104 13.2187 23.8941 14.226 23.6229C12.87 24.2041 12.4439 24.4752 12.0952 24.7464C12.5989 24.6301 13.1024 24.514 13.5673 24.4364C12.0178 25.0563 11.4367 25.3663 10.2744 26.5672C10.4294 26.1023 10.4294 25.4437 10.7393 24.9401ZM9.22843 34.5477C10.0033 34.6251 10.3907 34.7414 10.778 35.0901C10.042 34.8188 10.1194 34.8964 9.49961 35.2062C9.03473 35.4387 8.76355 35.7487 8.18244 35.8261C7.52386 35.9036 6.86528 35.6711 6.16796 35.2062C6.36166 35.3999 6.47787 35.555 6.74905 35.7487C5.78055 35.1288 5.39314 34.8576 5.43188 33.6954C5.85803 34.2377 6.9815 34.0828 7.71756 33.9279C7.83378 33.9279 8.53111 33.8503 9.18969 34.1216C10.0033 34.4702 11.4367 34.5477 12.7538 34.4702C10.2744 34.7801 10.0033 34.5477 9.22843 34.5477ZM20.0757 30.1701C19.9207 29.7827 19.8432 29.279 19.727 28.8528C19.727 28.8528 19.6109 29.6664 19.5333 29.7827C19.6109 28.9691 19.4558 28.5042 19.4558 28.5042C19.2235 30.4799 19.3396 31.7584 16.5116 31.2935C17.2864 31.2547 17.9838 31.061 17.9838 31.061C16.7053 30.9836 16.5116 31.0223 15.3106 30.5961C16.2017 30.6349 16.4728 30.7124 17.3251 30.4799C16.1629 30.2863 14.962 30.0926 13.8772 29.7052C13.8772 29.7052 10.7005 30.9061 10.7393 30.8286C10.778 30.7512 12.3276 29.9764 12.3276 29.9764C11.2042 30.48 10.1194 30.9061 8.95725 31.371C9.53835 31.6421 9.53835 31.6421 10.0033 32.1458C9.7708 32.0683 9.49961 31.9521 9.26717 31.8746C9.80954 32.3783 9.65458 32.998 10.5068 33.308C10.042 33.2692 9.53835 32.998 9.11221 32.8431C9.88702 33.7342 10.5068 33.8503 11.8241 34.1216C9.57709 34.044 9.26717 33.6566 8.02748 32.8431C8.1437 33.0368 8.29867 33.2305 8.45363 33.4242C7.91126 32.8043 7.3689 32.9206 6.71031 32.3395C6.78779 32.5332 7.05898 32.7657 7.25268 32.9594C6.47787 32.4557 6.05173 32.3395 5.85803 31.4097C5.85803 31.0998 6.55535 30.7899 6.71031 30.9449C7.05898 31.2935 7.1752 31.4097 7.48512 31.7971C7.7563 31.5647 7.67882 31.371 7.71756 31.0223C7.09772 30.6736 7.25268 30.6349 7.56261 30.325C7.60135 30.2863 7.44638 30.0926 7.44638 30.0926C6.90402 30.1313 6.36166 30.0926 5.81929 30.0538C6.51661 29.9376 7.25268 29.9376 7.87252 29.589C9.49961 28.7367 11.0105 27.9619 12.715 27.1871C12.0178 27.342 11.0879 27.6131 10.3907 27.7682C12.4826 26.8771 14.8845 25.7149 17.0153 24.9789C16.7053 25.2113 16.3954 25.405 16.0467 25.6374C17.4027 25.0951 18.991 25.4437 19.882 26.5672C19.6109 26.4122 19.3396 26.2572 19.0298 26.2572C19.3396 26.606 19.8046 27.032 19.882 27.497C19.1847 26.9546 18.2936 26.6834 17.3251 26.7609C17.4027 26.6834 17.7125 26.5672 18.0225 26.4897C15.698 26.6834 15.8143 27.3808 14.1484 28.543C14.1097 28.543 15.1945 28.1943 15.1945 28.1943C15.9305 29.3178 17.9838 28.6204 18.6423 28.5042C18.836 28.4654 18.1387 28.9691 18.3324 28.8528C18.7585 28.6591 19.7658 28.0393 20.1532 28.0006C19.8046 28.1943 20.0757 30.1701 20.0757 30.1701ZM17.6351 27.2645C17.5964 27.2645 17.2476 27.1871 17.0153 27.342C16.5891 27.6519 16.5503 27.6131 16.0854 27.497C16.6665 26.9546 17.0153 26.7997 17.6351 27.2645ZM29.3346 23.5455C27.2426 27.8456 28.0949 27.4582 23.9885 29.589C25.3444 28.543 26.7003 27.6131 27.0102 26.9934C27.0489 26.9159 26.5066 27.4194 25.4606 27.9231C26.4678 27.342 27.5914 26.1798 27.9012 25.0951C27.9012 25.0951 27.5138 25.1338 27.0489 24.8626C26.5066 25.1338 25.9642 25.405 25.4606 25.6762C25.7318 25.405 26.0417 25.2113 26.3516 24.9789C24.8407 25.6374 23.8335 26.0248 22.5163 27.032C25.1895 24.4364 27.7463 24.2041 29.3346 23.5455ZM19.6495 23.1581C23.1362 22.3833 24.1434 21.4534 25.6155 18.0443C24.2596 22.1508 22.7488 22.8094 19.6495 23.1581Z" fill="white"/>
<path d="M49.039 48.4468L49.0996 49.9232H47.9282L47.9989 48.4468V46.6161H45.1108V48.4567L45.1714 49.9331H44L44.0707 48.4567V43.9783L44 42.5512H45.1714L45.1108 43.9783V45.6516H47.9989V43.9685L47.9282 42.5413H49.0996L49.039 43.9685V48.4468ZM55.7428 48.4961L55.8136 49.9331H54.7735L54.723 49.1555C54.5413 49.4311 54.282 49.6509 53.9455 49.815C53.6156 49.9724 53.2655 50.0512 52.8952 50.0512C52.4172 50.0512 52.0402 49.9003 51.7642 49.5984C51.4882 49.2966 51.3502 48.8734 51.3502 48.3287V45.5039L51.2896 44.0276H52.4307L52.36 45.5039V48.1024C52.36 48.8045 52.6697 49.1555 53.2891 49.1555C53.5314 49.1555 53.794 49.0768 54.0766 48.9193C54.3595 48.7618 54.5782 48.5682 54.7331 48.3386V45.5039L54.6725 44.0276H55.8136L55.7428 45.5039V48.4961ZM61.4447 48.4567V45.8583C61.4447 45.189 61.1383 44.8543 60.5257 44.8543C60.2698 44.8543 60.0006 44.9265 59.7179 45.0709C59.4351 45.2087 59.2196 45.3924 59.0716 45.622V48.4567L59.1423 49.9331H57.9911L58.0618 48.4567V45.4547L57.9911 44.0276H58.8696L59.0716 44.815C59.2534 44.5459 59.5092 44.336 59.8391 44.185C60.1756 44.0341 60.5358 43.9587 60.9196 43.9587C61.3975 43.9587 61.7711 44.1063 62.0405 44.4016C62.3164 44.6903 62.4545 45.1004 62.4545 45.6319V48.4567L62.5252 49.9331H61.374L61.4447 48.4567ZM64.4603 44.313L65.1066 44.0276L65.4095 42.7972H66.1164V44.0276H67.8432V44.9528H66.1164V48.2008C66.1164 48.5092 66.1736 48.7356 66.288 48.8799C66.4025 49.0177 66.5809 49.0866 66.8232 49.0866C67.0522 49.0866 67.2709 49.0407 67.4796 48.9488C67.6884 48.857 67.8432 48.7388 67.9441 48.5945L68.0956 48.6535L67.8735 49.5C67.4965 49.8675 67.0724 50.0512 66.6011 50.0512C66.0827 50.0512 65.7024 49.897 65.46 49.5886C65.2244 49.2736 65.1066 48.7585 65.1066 48.0433V44.9528H64.4603V44.313ZM70.3401 43.1319C70.1448 43.1319 69.9799 43.0794 69.8453 42.9744C69.7106 42.8694 69.6434 42.7349 69.6434 42.5709C69.6434 42.4068 69.7106 42.2723 69.8453 42.1673C69.9799 42.0558 70.1448 42 70.3401 42C70.5286 42 70.6901 42.0558 70.8248 42.1673C70.9595 42.2723 71.0268 42.4068 71.0268 42.5709C71.0268 42.7349 70.9595 42.8694 70.8248 42.9744C70.6901 43.0794 70.5286 43.1319 70.3401 43.1319ZM69.8251 48.4567V45.4547L69.7645 44.0276H70.9056L70.8349 45.4547V48.4567L70.9056 49.9331H69.7645L69.8251 48.4567ZM76.5359 48.4567V45.8583C76.5359 45.189 76.2296 44.8543 75.6169 44.8543C75.3611 44.8543 75.0918 44.9265 74.8091 45.0709C74.5263 45.2087 74.3109 45.3924 74.1628 45.622V48.4567L74.2335 49.9331H73.0823L73.153 48.4567V45.4547L73.0823 44.0276H73.9608L74.1628 44.815C74.3446 44.5459 74.6003 44.336 74.9303 44.185C75.2668 44.0341 75.627 43.9587 76.0108 43.9587C76.4887 43.9587 76.8623 44.1063 77.1316 44.4016C77.4076 44.6903 77.5457 45.1004 77.5457 45.6319V48.4567L77.6164 49.9331H76.4652L76.5359 48.4567ZM84.2774 44.0276L84.2168 45.4941V49.0079C84.2168 50.0118 83.9375 50.7598 83.3787 51.252C82.8199 51.7507 82.0121 52 80.9551 52L80.5007 51.2421L80.5714 51.1634C81.0898 51.1634 81.5476 51.0879 81.9447 50.937C82.3487 50.7861 82.6584 50.5728 82.8738 50.2972C83.0959 50.0282 83.207 49.7198 83.207 49.372V49.2638C83.0724 49.4934 82.8738 49.6772 82.6112 49.815C82.3554 49.9462 82.0828 50.0118 81.7933 50.0118C81.0797 50.0118 80.5277 49.7526 80.1372 49.2343C79.7468 48.7159 79.5515 47.9613 79.5515 46.9705C79.5515 45.914 79.7332 45.1398 80.0968 44.6476C80.4671 44.1555 81.0292 43.9094 81.7832 43.9094C82.416 43.9094 82.9142 44.0571 83.2777 44.3524L83.3383 44.0276H84.2774ZM81.9346 49.0669C82.5069 49.0669 82.931 48.9259 83.207 48.6437V45.0709C82.931 44.9331 82.5405 44.8642 82.0356 44.8642C81.6654 44.8642 81.3759 44.9265 81.1672 45.0512C80.9652 45.1759 80.8205 45.3891 80.733 45.6909C80.6455 45.9928 80.6017 46.4193 80.6017 46.9705C80.6017 47.7251 80.7061 48.2631 80.9147 48.5846C81.1234 48.9062 81.4635 49.0669 81.9346 49.0669ZM88.9225 48.2697C88.9225 47.7644 89.047 47.3412 89.2961 47C89.5519 46.6588 89.9659 46.3602 90.5382 46.1043C90.316 45.7959 90.1443 45.4875 90.0232 45.1791C89.9086 44.8707 89.8515 44.5951 89.8515 44.3524C89.8515 43.7487 90.0131 43.2828 90.3362 42.9547C90.6593 42.6201 91.1406 42.4528 91.7802 42.4528C93.0526 42.4528 93.6888 43.0696 93.6888 44.3032C93.6888 44.7493 93.5541 45.143 93.2849 45.4843C93.0155 45.8189 92.5712 46.1306 91.9519 46.4193L92.4467 47L93.194 47.8858C93.6248 47.42 93.921 47.0558 94.0826 46.7933L94.3856 46.0157H95.567C95.0688 46.9738 94.4932 47.7874 93.8403 48.4567C94.271 48.857 94.6716 49.0571 95.0419 49.0571C95.2977 49.0571 95.5267 49.0079 95.7286 48.9094L95.8397 48.9685L95.5468 49.815C95.3987 49.8806 95.2708 49.9232 95.1631 49.9429C95.0621 49.9626 94.9241 49.9724 94.7491 49.9724C94.5202 49.9724 94.2745 49.9101 94.0119 49.7854C93.7494 49.6608 93.4464 49.4278 93.1031 49.0866C92.7194 49.4278 92.3625 49.6739 92.0327 49.8248C91.7028 49.9692 91.346 50.0413 90.9623 50.0413C90.3025 50.0413 89.7976 49.8871 89.4476 49.5787C89.0975 49.2703 88.9225 48.834 88.9225 48.2697ZM90.8209 44.3228C90.8209 44.6969 91.0229 45.1759 91.4268 45.7598C91.9182 45.4908 92.2582 45.248 92.4467 45.0315C92.6351 44.8084 92.7295 44.5623 92.7295 44.2933C92.7295 43.9783 92.652 43.7487 92.4972 43.6043C92.3491 43.4534 92.1135 43.378 91.7903 43.378C91.4537 43.378 91.208 43.4534 91.0532 43.6043C90.8983 43.7552 90.8209 43.9948 90.8209 44.3228ZM89.9121 48.1713C89.9121 48.46 90.0063 48.6896 90.1948 48.8602C90.39 49.0308 90.6559 49.1161 90.9926 49.1161C91.2214 49.1161 91.4436 49.0702 91.6591 48.9783C91.8745 48.8865 92.1302 48.7192 92.4265 48.4764C91.8139 47.8399 91.3325 47.269 90.9825 46.7638C90.5852 46.9803 90.3059 47.1936 90.1443 47.4035C89.9894 47.6135 89.9121 47.8694 89.9121 48.1713ZM102.751 50.0906C101.815 50.0906 101.105 49.7657 100.62 49.1161C100.142 48.46 99.9035 47.4921 99.9035 46.2126C99.9035 44.9462 100.142 43.9948 100.62 43.3583C101.105 42.7152 101.815 42.3937 102.751 42.3937C103.68 42.3937 104.387 42.7152 104.872 43.3583C105.357 43.9948 105.599 44.9462 105.599 46.2126C105.599 47.4921 105.357 48.46 104.872 49.1161C104.387 49.7657 103.68 50.0906 102.751 50.0906ZM102.751 49.0965C103.162 49.0965 103.495 49.0013 103.751 48.811C104.007 48.6207 104.195 48.3156 104.316 47.8957C104.444 47.4757 104.508 46.9147 104.508 46.2126C104.508 45.2021 104.367 44.4803 104.084 44.0472C103.808 43.6076 103.364 43.3878 102.751 43.3878C102.34 43.3878 102.004 43.4829 101.741 43.6732C101.485 43.857 101.297 44.1555 101.176 44.5689C101.055 44.9823 100.994 45.5302 100.994 46.2126C100.994 46.9147 101.055 47.4757 101.176 47.8957C101.297 48.3156 101.485 48.6207 101.741 48.811C101.997 49.0013 102.334 49.0965 102.751 49.0965ZM111.997 48.4961L112.067 49.9331H111.027L110.977 49.1555C110.795 49.4311 110.536 49.6509 110.199 49.815C109.869 49.9724 109.519 50.0512 109.149 50.0512C108.671 50.0512 108.294 49.9003 108.018 49.5984C107.742 49.2966 107.604 48.8734 107.604 48.3287V45.5039L107.543 44.0276H108.685L108.614 45.5039V48.1024C108.614 48.8045 108.923 49.1555 109.543 49.1555C109.785 49.1555 110.048 49.0768 110.331 48.9193C110.613 48.7618 110.832 48.5682 110.987 48.3386V45.5039L110.926 44.0276H112.067L111.997 45.5039V48.4961ZM114.063 44.313L114.709 44.0276L115.012 42.7972H115.719V44.0276H117.446V44.9528H115.719V48.2008C115.719 48.5092 115.776 48.7356 115.891 48.8799C116.005 49.0177 116.184 49.0866 116.426 49.0866C116.655 49.0866 116.874 49.0407 117.082 48.9488C117.291 48.857 117.446 48.7388 117.547 48.5945L117.698 48.6535L117.476 49.5C117.099 49.8675 116.675 50.0512 116.204 50.0512C115.686 50.0512 115.305 49.897 115.063 49.5886C114.827 49.2736 114.709 48.7585 114.709 48.0433V44.9528H114.063V44.313ZM123.821 48.4665L123.882 49.9331H122.842L122.801 49.313C122.66 49.5295 122.465 49.7001 122.216 49.8248C121.967 49.9495 121.707 50.0118 121.438 50.0118C120.704 50.0118 120.139 49.7559 119.742 49.2441C119.351 48.7257 119.156 47.9678 119.156 46.9705C119.156 45.914 119.338 45.1398 119.701 44.6476C120.072 44.1555 120.634 43.9094 121.388 43.9094C121.967 43.9094 122.441 44.0374 122.812 44.2933V43.4862L122.741 42.0591H123.882L123.821 43.4862V48.4665ZM121.539 49.0669C122.111 49.0669 122.535 48.9259 122.812 48.6437V45.0709C122.535 44.9331 122.145 44.8642 121.64 44.8642C121.27 44.8642 120.98 44.9265 120.772 45.0512C120.57 45.1759 120.425 45.3891 120.338 45.6909C120.25 45.9928 120.206 46.4193 120.206 46.9705C120.206 47.7251 120.311 48.2631 120.519 48.5846C120.728 48.9062 121.068 49.0669 121.539 49.0669ZM128.42 50.0906C127.552 50.0906 126.912 49.8346 126.502 49.3228C126.098 48.8045 125.896 48.0203 125.896 46.9705C125.896 45.9206 126.098 45.143 126.502 44.6378C126.912 44.126 127.552 43.8701 128.42 43.8701C129.289 43.8701 129.925 44.126 130.329 44.6378C130.74 45.143 130.945 45.9206 130.945 46.9705C130.945 48.0203 130.74 48.8045 130.329 49.3228C129.925 49.8346 129.289 50.0906 128.42 50.0906ZM128.42 49.126C128.804 49.126 129.1 49.0604 129.309 48.9291C129.524 48.7979 129.676 48.5814 129.763 48.2795C129.851 47.9711 129.895 47.5381 129.895 46.9803C129.895 46.4226 129.851 45.9928 129.763 45.6909C129.676 45.3825 129.524 45.1627 129.309 45.0315C129.1 44.9003 128.804 44.8346 128.42 44.8346C128.037 44.8346 127.737 44.9003 127.522 45.0315C127.313 45.1627 127.165 45.3825 127.077 45.6909C126.99 45.9928 126.946 46.4226 126.946 46.9803C126.946 47.5381 126.99 47.9711 127.077 48.2795C127.165 48.5814 127.313 48.7979 127.522 48.9291C127.737 49.0604 128.037 49.126 128.42 49.126ZM135.278 50.0906C134.41 50.0906 133.77 49.8346 133.36 49.3228C132.956 48.8045 132.754 48.0203 132.754 46.9705C132.754 45.9206 132.956 45.143 133.36 44.6378C133.77 44.126 134.41 43.8701 135.278 43.8701C136.147 43.8701 136.783 44.126 137.187 44.6378C137.598 45.143 137.803 45.9206 137.803 46.9705C137.803 48.0203 137.598 48.8045 137.187 49.3228C136.783 49.8346 136.147 50.0906 135.278 50.0906ZM135.278 49.126C135.662 49.126 135.958 49.0604 136.167 48.9291C136.382 48.7979 136.534 48.5814 136.621 48.2795C136.709 47.9711 136.753 47.5381 136.753 46.9803C136.753 46.4226 136.709 45.9928 136.621 45.6909C136.534 45.3825 136.382 45.1627 136.167 45.0315C135.958 44.9003 135.662 44.8346 135.278 44.8346C134.895 44.8346 134.595 44.9003 134.38 45.0315C134.171 45.1627 134.023 45.3825 133.935 45.6909C133.848 45.9928 133.804 46.4226 133.804 46.9803C133.804 47.5381 133.848 47.9711 133.935 48.2795C134.023 48.5814 134.171 48.7979 134.38 48.9291C134.595 49.0604 134.895 49.126 135.278 49.126ZM142.278 43.9587C142.762 43.9587 143.099 44.0046 143.288 44.0965L143.126 44.9626L142.995 45.0512C142.914 44.9921 142.783 44.9429 142.601 44.9035C142.419 44.8642 142.234 44.8445 142.046 44.8445C141.547 44.8445 141.157 45.0446 140.874 45.4449V48.4567L140.945 49.9331H139.794L139.864 48.4567V45.4547L139.794 44.0276H140.672L140.854 44.6969C141.022 44.4606 141.231 44.2802 141.48 44.1555C141.729 44.0243 141.995 43.9587 142.278 43.9587ZM150.242 50.0413C149.744 50.0413 149.295 49.9724 148.899 49.8346C148.508 49.6903 148.138 49.4574 147.788 49.1358L147.636 48.1417L147.778 48.1024C148.538 48.7323 149.313 49.0472 150.1 49.0472C150.598 49.0472 150.986 48.9554 151.262 48.7717C151.537 48.5879 151.676 48.3386 151.676 48.0236C151.676 47.8071 151.625 47.6299 151.524 47.4921C151.43 47.3543 151.255 47.2297 150.999 47.1181C150.744 47.0066 150.363 46.8885 149.858 46.7638C149.083 46.5604 148.532 46.2946 148.202 45.9665C147.879 45.6385 147.717 45.1824 147.717 44.5984C147.717 43.9357 147.932 43.414 148.363 43.0335C148.801 42.6463 149.404 42.4528 150.171 42.4528C150.628 42.4528 151.067 42.5217 151.484 42.6594C151.901 42.7907 152.241 42.9744 152.504 43.2106L152.352 44.1752L152.201 44.2146C151.999 43.9915 151.719 43.8077 151.363 43.6634C151.012 43.519 150.659 43.4469 150.302 43.4469C149.811 43.4469 149.437 43.5354 149.181 43.7126C148.932 43.8898 148.808 44.1489 148.808 44.4902C148.808 44.7264 148.858 44.92 148.959 45.0709C149.06 45.2218 149.229 45.353 149.464 45.4646C149.706 45.5761 150.05 45.6877 150.494 45.7992C151.067 45.9436 151.514 46.1076 151.837 46.2913C152.167 46.4685 152.403 46.685 152.544 46.9409C152.693 47.1969 152.766 47.5151 152.766 47.8957C152.766 48.5715 152.537 49.0997 152.08 49.4803C151.628 49.8543 151.016 50.0413 150.242 50.0413ZM157.02 50.0512C156.125 50.0512 155.482 49.7953 155.091 49.2835C154.707 48.7651 154.515 47.9941 154.515 46.9705C154.515 45.9731 154.721 45.2087 155.131 44.6772C155.542 44.1391 156.171 43.8701 157.02 43.8701C157.821 43.8701 158.413 44.0768 158.797 44.4902C159.188 44.897 159.417 45.5597 159.484 46.4783L159.231 47.4232H155.586C155.6 47.83 155.656 48.1549 155.757 48.3976C155.865 48.6339 156.034 48.811 156.262 48.9291C156.491 49.0472 156.808 49.1063 157.211 49.1063C157.622 49.1063 157.989 49.0637 158.312 48.9783C158.642 48.8865 158.918 48.7618 159.14 48.6043L159.312 48.6831L159.09 49.5492C158.841 49.7264 158.559 49.8543 158.241 49.9331C157.925 50.0118 157.518 50.0512 157.02 50.0512ZM158.433 46.5965C158.433 45.9665 158.326 45.5171 158.11 45.248C157.902 44.9724 157.552 44.8346 157.06 44.8346C156.704 44.8346 156.418 44.8937 156.202 45.0118C155.994 45.1234 155.838 45.3071 155.737 45.563C155.643 45.8189 155.59 46.1634 155.576 46.5965H158.433ZM163.862 43.9587C164.347 43.9587 164.683 44.0046 164.872 44.0965L164.71 44.9626L164.579 45.0512C164.498 44.9921 164.367 44.9429 164.185 44.9035C164.003 44.8642 163.819 44.8445 163.63 44.8445C163.132 44.8445 162.741 45.0446 162.458 45.4449V48.4567L162.529 49.9331H161.378L161.449 48.4567V45.4547L161.378 44.0276H162.256L162.438 44.6969C162.607 44.4606 162.815 44.2802 163.064 44.1555C163.314 44.0243 163.579 43.9587 163.862 43.9587ZM171.295 44.0276L170.76 45.4547L169.326 49.9331H167.963L166.569 45.4547L166.024 44.0276H167.327L167.65 45.4547L168.66 49.0571L169.68 45.4547L170.003 44.0276H171.295ZM173.5 43.1319C173.305 43.1319 173.14 43.0794 173.005 42.9744C172.871 42.8694 172.803 42.7349 172.803 42.5709C172.803 42.4068 172.871 42.2723 173.005 42.1673C173.14 42.0558 173.305 42 173.5 42C173.689 42 173.85 42.0558 173.984 42.1673C174.12 42.2723 174.186 42.4068 174.186 42.5709C174.186 42.7349 174.12 42.8694 173.984 42.9744C173.85 43.0794 173.689 43.1319 173.5 43.1319ZM172.985 48.4567V45.4547L172.924 44.0276H174.065L173.995 45.4547V48.4567L174.065 49.9331H172.924L172.985 48.4567ZM178.484 50.0906C176.869 50.0906 176.061 49.0702 176.061 47.0295C176.061 46.0256 176.266 45.2546 176.677 44.7165C177.094 44.1785 177.707 43.9094 178.515 43.9094C178.939 43.9094 179.275 43.9455 179.524 44.0177C179.78 44.0833 180.026 44.2014 180.261 44.372L180.1 45.248L179.938 45.3169C179.777 45.1594 179.595 45.0479 179.393 44.9823C179.191 44.9101 178.939 44.874 178.636 44.874C178.097 44.874 177.707 45.0446 177.464 45.3858C177.229 45.727 177.111 46.2749 177.111 47.0295C177.111 47.5413 177.161 47.9482 177.262 48.25C177.363 48.5518 177.528 48.7717 177.757 48.9094C177.986 49.0472 178.295 49.1161 178.686 49.1161C179.03 49.1161 179.305 49.08 179.514 49.0079C179.723 48.9357 179.945 48.8045 180.181 48.6142L180.352 48.6929L180.13 49.5689C179.868 49.7657 179.618 49.9003 179.383 49.9724C179.148 50.0512 178.848 50.0906 178.484 50.0906ZM184.536 50.0512C183.64 50.0512 182.997 49.7953 182.607 49.2835C182.224 48.7651 182.032 47.9941 182.032 46.9705C182.032 45.9731 182.237 45.2087 182.648 44.6772C183.058 44.1391 183.688 43.8701 184.536 43.8701C185.337 43.8701 185.93 44.0768 186.313 44.4902C186.703 44.897 186.932 45.5597 187 46.4783L186.748 47.4232H183.102C183.115 47.83 183.173 48.1549 183.274 48.3976C183.381 48.6339 183.549 48.811 183.779 48.9291C184.007 49.0472 184.324 49.1063 184.728 49.1063C185.138 49.1063 185.505 49.0637 185.829 48.9783C186.158 48.8865 186.435 48.7618 186.657 48.6043L186.828 48.6831L186.606 49.5492C186.357 49.7264 186.074 49.8543 185.758 49.9331C185.441 50.0118 185.034 50.0512 184.536 50.0512ZM185.95 46.5965C185.95 45.9665 185.842 45.5171 185.627 45.248C185.418 44.9724 185.067 44.8346 184.576 44.8346C184.219 44.8346 183.933 44.8937 183.718 45.0118C183.509 45.1234 183.355 45.3071 183.254 45.563C183.159 45.8189 183.105 46.1634 183.092 46.5965H185.95Z" fill="white"/>
<path d="M187.607 36H44V36.9836H187.607V36Z" fill="white"/>
<path d="M60.7759 25.7744L61.0967 30.4681H55.8362L56.1569 25.7744V20.5802H48.9398V25.8057L49.2605 30.4993H44L44.3208 25.8057V11.5684L44 7.03129H49.2605L48.9398 11.5684V16.2621H56.1569V11.5372L55.8362 7H61.0967L60.7759 11.5372V25.7744ZM86.6717 7.03129L86.351 11.5684V21.8005C86.351 24.9714 85.6667 27.2972 84.2981 28.7784C82.9509 30.2595 80.8446 31 77.979 31C75.1136 31 72.9966 30.2595 71.6279 28.7784C70.2807 27.2972 69.6071 24.9714 69.6071 21.8005V11.5684L69.2864 7.03129H74.5469L74.2261 11.5684V21.8005C74.2261 23.532 74.5042 24.7627 75.0601 25.4928C75.6375 26.223 76.6105 26.588 77.979 26.588C79.3477 26.588 80.31 26.223 80.8659 25.4928C81.4433 24.7627 81.732 23.532 81.732 21.8005V11.5684L81.4112 7.03129H86.6717ZM112.231 25.8057L112.552 30.4993H105.271L99.1442 11.9752V25.8057L99.465 30.4993H94.846L95.1668 25.8057V11.5684L94.846 7.03129H102.159L108.254 25.4615V11.5684L107.933 7.03129H112.552L112.231 11.5684V25.8057ZM136.605 11.4746L136.252 11.5684L133.366 11.193H130.415V25.8057L130.735 30.4993H125.475L125.796 25.8057V11.193H122.845L119.958 11.5684L119.605 11.4746L120.311 7.03129H135.9L136.605 11.4746ZM161.446 30.4993H155.832L155.095 25.8057V25.7432L146.883 25.8057L146.145 30.4993H141.173L142.745 25.8057L146.691 11.7249L147.653 7.03129H154.742L155.704 11.7249L159.874 25.8057L161.446 30.4993ZM153.811 21.4563L150.893 11.4433L148.102 21.4876L153.811 21.4563ZM186.8 30.4993H180.16L178.011 25.8057L176.632 23.6154H173.392V25.8057L173.713 30.4993H168.452L168.773 25.8057V11.5684L168.452 7.03129H176.824C179.668 7.03129 181.775 7.71969 183.143 9.09648C184.534 10.4524 185.228 12.5176 185.228 15.292C185.228 16.9817 184.864 18.4524 184.138 19.704C183.432 20.9557 182.449 21.9152 181.187 22.5828L183.24 25.8057L186.8 30.4993ZM173.392 19.2973H175.477C177.294 19.2973 178.567 19.0052 179.294 18.4211C180.043 17.837 180.417 16.794 180.417 15.292C180.417 14.249 180.268 13.4459 179.968 12.8827C179.668 12.3194 179.166 11.9231 178.46 11.6936C177.775 11.4641 176.803 11.3494 175.541 11.3494H173.392V19.2973Z" fill="white"/>
</svg>
